<?xml version="1.0" encoding="UTF-8" standalone="no"?>
<!-- Created with Inkscape (http://www.inkscape.org/) -->

<svg
   version="1.1"
   id="svg1"
  
   viewBox="0 0 272 272"
   xmlns="http://www.w3.org/2000/svg">
    
  <g id="g1" transform="translate(-37.513672,-16.078125)">
    <path      
       style="opacity:1;fill:#524D32;stroke-width:7.31331"
       d="M 173.51367,16.078125 A 136,136 0 0 0 37.513672,152.07812 a 136,136 0 0 0 135.999998,136 136,136 0 0 0 136,-136 136,136 0 0 0 -0.99805,-16.44921 h -30.28515 a 106,106 0 0 1 0.002,0.0117 h -26.6582 v 29.26954 h 27.16016 A 106,106 0 0 1 173.51367,258.07812 106,106 0 0 1 68.382812,165.62891 h 28.232422 v -30 H 68.796875 a 106,106 0 0 1 104.716795,-89.550785 106,106 0 0 1 50.9375,13.041016 l 0.084,-0.103516 a 15,15 0 0 0 1.55078,1.019531 15,15 0 0 0 20.46484,-5.585937 15,15 0 0 0 -3.03516,-18.63086 l 0.1875,-0.228515 a 136,136 0 0 0 -1.3125,-0.673828 15,15 0 0 0 -1.42382,-0.931641 15,15 0 0 0 -2.61914,-1.144531 136,136 0 0 0 -64.83399,-16.761719 z m 91.10742,42.324219 a 15,15 0 0 0 -8.95312,3.583984 15,15 0 0 0 -1.63672,21.150391 15,15 0 0 0 21.14844,1.636719 15,15 0 0 0 1.63867,-21.150391 15,15 0 0 0 -12.19727,-5.220703 z" />
    <path
       style="opacity:1;fill:#9E9261;stroke-width:3.38779"
       d="m 173.51367,89.078125 a 63,63 0 0 0 -63,62.999995 63,63 0 0 0 63,63 63,63 0 0 0 33,-9.33398 v 9.33398 h 30 v -59.59374 h -0.0918 a 63,63 0 0 0 0.0918,-3.40626 63,63 0 0 0 -63,-62.999995 z m 0,24.999995 a 38,38 0 0 1 38,38 38,38 0 0 1 -38,38 38,38 0 0 1 -38,-38 38,38 0 0 1 38,-38 z" />
  </g>
</svg>
